<?xml version="1.0" encoding="utf-8"?>
<!-- Generator: Adobe Illustrator 27.5.0, SVG Export Plug-In . SVG Version: 6.00 Build 0)  -->
<svg version="1.1" id="_x31__1_" xmlns="http://www.w3.org/2000/svg" xmlns:xlink="http://www.w3.org/1999/xlink" x="0px" y="0px"
	 viewBox="0 0 450 450" style="enable-background:new 0 0 450 450;" xml:space="preserve">
<path id="_x30_" style="fill:#CDD1CF;" d="M217.364,358.048c-100.847,0-182.599,2.379-182.599,5.313
	c0,2.934,81.753,5.313,182.599,5.313c100.846,0,182.599-2.379,182.599-5.313C399.963,360.427,318.21,358.048,217.364,358.048z"/>
<g id="_x31_">
	<g id="_x32_">
		<g>
			<g>
				<path style="fill:#1C0D04;" d="M157.22,148.821c-2.627,4.606-3.521,9.044-1.998,9.913c1.523,0.869,4.888-2.161,7.514-6.767
					c2.627-4.605,3.521-9.044,1.998-9.913C163.211,141.186,159.847,144.215,157.22,148.821z"/>
			</g>
			<g>
				<path style="fill:#CE2708;" d="M154.254,157.707c0.171,0.407,0.384,0.696,0.631,0.837c0.047,0.03,0.1,0.053,0.159,0.065
					c1.416,0.46,4.489-2.59,7.02-7.026c2.519-4.424,3.587-8.619,2.478-9.609c-0.047-0.047-0.094-0.083-0.147-0.112
					c-0.248-0.142-0.607-0.177-1.044-0.118c-1.882,0.259-5.221,2.318-7.38,5.84c-0.077,0.13-0.153,0.266-0.23,0.396
					C153.6,151.743,153.494,155.895,154.254,157.707z"/>
			</g>
			<g>
				<path style="fill:#E8331A;" d="M154.254,157.707c0.089-0.042,0.183-0.101,0.283-0.171c1.298-0.909,3.416-3.664,5.41-7.156
					c1.994-3.492,3.28-6.719,3.398-8.3c0.012-0.124,0.018-0.236,0.006-0.336c-1.882,0.259-5.221,2.318-7.38,5.84
					c-0.077,0.13-0.153,0.266-0.23,0.396C153.6,151.743,153.494,155.895,154.254,157.707z"/>
			</g>
			<path style="fill:#474747;" d="M156.035,148.292c-0.57,0.937-0.458,2.045,0.248,2.475c0.707,0.43,1.742,0.018,2.311-0.919
				c0.569-0.937,0.459-2.045-0.248-2.475C157.639,146.943,156.604,147.355,156.035,148.292z"/>
			<g>
				<path style="fill:#C3C3C3;" d="M136.792,182.087c0.352,0,0.685-0.211,0.823-0.559l12.049-30.356l7.723-1.481
					c0.48-0.092,0.794-0.556,0.702-1.036c-0.092-0.48-0.555-0.795-1.036-0.702l-8.2,1.572c-0.297,0.057-0.544,0.262-0.656,0.543
					l-12.228,30.808c-0.18,0.454,0.042,0.969,0.496,1.149C136.573,182.066,136.684,182.087,136.792,182.087z"/>
			</g>
		</g>
		<g>
			<path style="fill:#F6F1D3;" d="M285.654,322.268c0,11.619,9.42,21.038,21.039,21.038c11.619,0,21.038-9.419,21.038-21.038
				c0-11.619-9.419-21.038-21.038-21.038C295.074,301.229,285.654,310.648,285.654,322.268z"/>
			<path style="fill:#CE2708;" d="M293.67,322.268c0,6.704,5.435,12.139,12.139,12.139c6.703,0,12.138-5.435,12.138-12.139
				s-5.435-12.139-12.138-12.139C299.104,310.129,293.67,315.564,293.67,322.268z"/>
			<path style="fill:#4A3231;" d="M301.724,322.268c0,2.256,1.829,4.084,4.085,4.084s4.084-1.828,4.084-4.084
				c0-2.256-1.828-4.085-4.084-4.085S301.724,320.012,301.724,322.268z"/>
			<path style="fill:#3D3D3D;" d="M266.773,323.441c0,22.051,17.869,39.92,39.92,39.92c22.045,0,39.919-17.869,39.919-39.92
				c0-22.045-17.874-39.92-39.919-39.92C284.643,283.522,266.773,301.397,266.773,323.441z M282.754,322.268
				c0-12.707,10.301-23.007,23.007-23.007c12.707,0,23.007,10.3,23.007,23.007s-10.3,23.007-23.007,23.007
				C293.055,345.274,282.754,334.975,282.754,322.268z"/>
			<path style="fill:#4A3231;" d="M275.026,323.441c0,17.492,14.175,31.667,31.667,31.667c17.487,0,31.666-14.175,31.666-31.667
				c0-17.487-14.179-31.667-31.666-31.667C289.201,291.774,275.026,305.954,275.026,323.441z M287.703,322.51
				c0-10.079,8.171-18.25,18.251-18.25c10.079,0,18.25,8.171,18.25,18.25c0,10.08-8.171,18.251-18.25,18.251
				C295.874,340.761,287.703,332.59,287.703,322.51z"/>
			<path style="fill:#E2DCC0;" d="M268.85,322.268c0,20.523,16.523,37.164,36.911,37.164c20.388,0,36.917-16.641,36.917-37.164
				c0-20.529-16.529-37.165-36.917-37.165C285.373,285.103,268.85,301.738,268.85,322.268z M282.754,322.268
				c0-12.707,10.301-23.007,23.007-23.007c12.707,0,23.007,10.3,23.007,23.007s-10.3,23.007-23.007,23.007
				C293.055,345.274,282.754,334.975,282.754,322.268z"/>
			<g>
				<path style="fill:#CE2708;" d="M306.102,351.124c-15.91,0-28.855-12.945-28.855-28.856c0-15.91,12.945-28.855,28.855-28.855
					c15.911,0,28.857,12.945,28.857,28.855C334.959,338.179,322.014,351.124,306.102,351.124z M306.102,296.832
					c-14.025,0-25.435,11.409-25.435,25.436s11.41,25.436,25.435,25.436c14.026,0,25.437-11.41,25.437-25.436
					S320.129,296.832,306.102,296.832z"/>
			</g>
		</g>
		<g>
			<path style="fill:#F6F1D3;" d="M56.133,322.274c0,11.619,9.419,21.038,21.039,21.038c11.619,0,21.038-9.419,21.038-21.038
				c0-11.619-9.419-21.038-21.038-21.038C65.552,301.236,56.133,310.655,56.133,322.274z"/>
			<path style="fill:#CE2708;" d="M64.148,322.274c0,6.704,5.435,12.139,12.139,12.139c6.704,0,12.138-5.435,12.138-12.139
				c0-6.704-5.435-12.139-12.138-12.139C69.582,310.136,64.148,315.57,64.148,322.274z"/>
			<path style="fill:#3D3D3D;" d="M37.252,323.448c0,22.051,17.869,39.92,39.919,39.92c22.045,0,39.919-17.869,39.919-39.92
				c0-22.045-17.874-39.919-39.919-39.919C55.121,283.529,37.252,301.403,37.252,323.448z M53.233,322.274
				c0-12.707,10.3-23.007,23.006-23.007c12.706,0,23.006,10.3,23.006,23.007c0,12.707-10.3,23.007-23.006,23.007
				C63.533,345.281,53.233,334.982,53.233,322.274z"/>
			<path style="fill:#4A3231;" d="M45.504,323.448c0,17.492,14.175,31.667,31.667,31.667c17.487,0,31.666-14.175,31.666-31.667
				c0-17.487-14.179-31.666-31.666-31.666C59.679,291.782,45.504,305.961,45.504,323.448z M58.182,322.518
				c0-10.08,8.17-18.251,18.25-18.251c10.08,0,18.25,8.171,18.25,18.251c0,10.079-8.17,18.25-18.25,18.25
				C66.352,340.768,58.182,332.597,58.182,322.518z"/>
			<path style="fill:#E2DCC0;" d="M39.328,322.274c0,20.523,16.524,37.165,36.911,37.165c20.387,0,36.917-16.642,36.917-37.165
				c0-20.529-16.53-37.165-36.917-37.165C55.852,285.109,39.328,301.745,39.328,322.274z M53.233,322.274
				c0-12.707,10.3-23.007,23.006-23.007c12.706,0,23.006,10.3,23.006,23.007c0,12.707-10.3,23.007-23.006,23.007
				C63.533,345.281,53.233,334.982,53.233,322.274z"/>
			<g>
				<path style="fill:#CE2708;" d="M76.581,351.13c-15.911,0-28.856-12.944-28.856-28.855c0-15.911,12.945-28.855,28.856-28.855
					c15.911,0,28.856,12.944,28.856,28.855C105.438,338.186,92.493,351.13,76.581,351.13z M76.581,296.838
					c-14.025,0-25.436,11.41-25.436,25.437c0,14.026,11.411,25.436,25.436,25.436c14.025,0,25.436-11.41,25.436-25.436
					C102.018,308.248,90.607,296.838,76.581,296.838z"/>
			</g>
			<g>
				<path style="fill:#C3C3C3;" d="M73.072,320.603c0,0,2.195,0.808,3.434,1.857c0.425,0.354,0.702,0.702,0.667,0.985
					c-0.13,1.108,20.971-28.239,21.036-28.316l-2.023-2.713l-1.929-2.59l-3.422,4.843l-16.287,23.685L73.072,320.603z"/>
				<path style="fill:#474747;" d="M73.309,319.478c0.071,0.159,0.894-0.467,0.87-0.343c-0.195,0.961,16.934-23.663,16.98-23.723
					l-0.325-0.743L73.309,319.478z"/>
				<path style="fill:#474747;" d="M76.506,322.461c0.425,0.354,0.702,0.702,0.667,0.985c-0.13,1.108,20.971-28.239,21.036-28.316
					l-2.023-2.713L76.506,322.461z"/>
			</g>
			<path style="fill:#4A3231;" d="M72.202,322.274c0,2.256,1.829,4.085,4.085,4.085c2.256,0,4.085-1.829,4.085-4.085
				c0-2.256-1.829-4.085-4.085-4.085C74.031,318.19,72.202,320.019,72.202,322.274z"/>
			<path style="fill:#BFBFBF;" d="M57.965,288.11c0.023,0,0.041,0.006,0.065,0.006c11.503,1.156,24.446,8.577,32.947,16.205
				c8.058,7.227,10.488,16.989,17.172,24.912c1.675,1.988,3.386,3.569,4.855,5.48c1.321-3.905,2.041-8.088,2.041-12.441
				c0-21.402-17.35-38.758-38.757-38.758C69.657,283.515,63.421,285.179,57.965,288.11z"/>
		</g>
		<path style="fill:#494848;" d="M371.155,288.119h-21.343v8.76h21.328c2.423,0,4.387-1.965,4.387-4.388l0,0
			C375.527,290.077,373.57,288.119,371.155,288.119z"/>
		<g>
			<g>
				<path style="fill:#E8331A;" d="M366.604,259.017l0.453,0.513c1.177,1.332,1.857,3.307,1.857,5.39v13.086
					c0,2.856-1.639,5.216-3.734,5.376l0,0c-1.084,0.084-2.054-0.907-2.294-2.35c-0.781-4.694-2.061-14.932,0.332-21.115
					C363.875,258.219,365.521,257.79,366.604,259.017z"/>
				<polygon style="fill:#594040;" points="359.28,251.427 365.965,257.052 365.965,284.183 356.526,286.887 				"/>
			</g>
			<path style="fill:#BFBFBF;" d="M262.878,312.261c0.451,3.048,1.578,6.102,3.448,9.042c2.934,4.616,1.773,10.165,3.522,15.069
				c0.921-0.065,13.815-15.508,33.347-20.742c28.668-7.684,41.68,3.277,40.436-1.457c-1.68-6.394-8.499-14.908-12.119-18.533
				c-8.477-8.488-17.136-15.376-28.935-15.377c-11.288,0-23.191,3.53-31.621,11.272C264.791,297.196,261.76,304.709,262.878,312.261
				z"/>
			<g>
				<path style="fill:#3D3D3D;" d="M229.52,319.494c0.053-0.038,0.105-0.076,0.157-0.114c1.704-1.238,10.674-17.629,12.406-16.432
					c1.865,1.29,3.749,2.797,5.628,4.403c1.095-9.982,9.796-18.834,21.708-21.074c14.15-2.66,27.471,5.017,29.751,17.147
					c2.281,12.13-7.341,24.121-21.491,26.781c-2.393,0.45-36.368,0.088-46.259-1.964
					C227.258,327.379,226.082,321.995,229.52,319.494z"/>
				<path style="fill:#A7A9AC;" d="M252.565,312.188c1.868,9.935,12.777,16.222,24.366,14.043
					c11.588-2.18,19.469-11.999,17.601-21.934c-1.868-9.935-12.777-16.223-24.365-14.043
					C258.578,292.433,250.697,302.253,252.565,312.188z M255.118,311.708c-1.641-8.727,5.28-17.353,15.46-19.267
					c10.179-1.914,19.761,3.608,21.401,12.335c1.642,8.727-5.28,17.353-15.46,19.267
					C266.341,325.956,256.759,320.434,255.118,311.708z"/>
				<g>
					<path style="fill:#A7A9AC;" d="M257.547,312.315l32.403-6.092c0.522-0.099,0.869-0.606,0.771-1.128l0,0
						c-0.098-0.522-0.605-0.869-1.127-0.771l-32.404,6.093c-0.521,0.098-0.868,0.605-0.771,1.127l0,0
						C256.518,312.067,257.024,312.414,257.547,312.315z"/>
					<path style="fill:#A7A9AC;" d="M260.4,316.431l28.386-5.337c0.522-0.099,0.869-0.605,0.771-1.128l0,0
						c-0.099-0.522-0.605-0.869-1.128-0.77l-28.387,5.337c-0.522,0.099-0.869,0.607-0.771,1.128l0,0
						C259.37,316.183,259.878,316.529,260.4,316.431z"/>
					<path style="fill:#A7A9AC;" d="M264.415,320.226l22.009-4.138c0.522-0.099,0.869-0.606,0.771-1.128l0,0
						c-0.099-0.522-0.606-0.869-1.128-0.77l-22.01,4.138c-0.521,0.099-0.868,0.605-0.771,1.128l0,0
						C263.386,319.977,263.893,320.324,264.415,320.226z"/>
					<path style="fill:#A7A9AC;" d="M271.156,322.56l9.834-1.849c0.522-0.099,0.869-0.605,0.771-1.128l0,0
						c-0.099-0.522-0.605-0.869-1.128-0.771l-9.834,1.849c-0.523,0.099-0.869,0.605-0.771,1.128l0,0
						C270.127,322.311,270.635,322.658,271.156,322.56z"/>
					<path style="fill:#A7A9AC;" d="M286.831,300.69l-28.387,5.338c-0.522,0.098-0.869,0.605-0.771,1.128l0,0
						c0.099,0.521,0.606,0.868,1.128,0.771l28.387-5.338c0.522-0.098,0.869-0.605,0.771-1.127l0,0
						C287.86,300.939,287.352,300.592,286.831,300.69z"/>
					<path style="fill:#A7A9AC;" d="M282.815,296.896l-22.009,4.138c-0.522,0.099-0.869,0.605-0.77,1.128l0,0
						c0.098,0.522,0.605,0.869,1.127,0.771l22.01-4.138c0.521-0.099,0.868-0.607,0.771-1.128l0,0
						C283.845,297.144,283.338,296.797,282.815,296.896z"/>
					<path style="fill:#A7A9AC;" d="M276.074,294.561l-9.834,1.849c-0.522,0.099-0.869,0.605-0.771,1.128l0,0
						c0.099,0.522,0.605,0.869,1.128,0.771l9.834-1.85c0.522-0.098,0.869-0.606,0.771-1.127l0,0
						C277.103,294.81,276.596,294.463,276.074,294.561z"/>
				</g>
			</g>
			<path style="fill:#CE2708;" d="M128.548,320.165c-0.31-7.291-2.663-23.286-16.043-39.839
				c-11.479-12.604-37.754-22.265-69.868,1.385c-0.029,0.021-0.059,0.04-0.088,0.06c-1.265,0.853-0.611,2.828,0.913,2.752
				c21.694-1.083,45.725,5.134,59.863,22.704c3.403,4.28,6.335,9.353,9.958,13.39c2.521,2.809,7.621,3.071,11.211,3.396
				C126.729,324.215,128.643,322.408,128.548,320.165z"/>
			<path style="fill:#E8331A;" d="M115.13,302.96c1.672-0.694,1.289-4.138,0.219-7.861c-4.107-14.279-19.877-21.947-34.066-21.947
				c-6.867,0-20.325,2.02-28.282,5.795c-0.636,0.302-0.483,1.244,0.219,1.318c14.576,1.543,28.619,0.425,41.416,7.854
				c5.452,3.165,10.428,9.366,15.57,13.031C112.638,302.884,114.201,303.347,115.13,302.96z"/>
			<path style="fill:#CE2708;" d="M142.724,202.498l9.577-16.834c0.304-0.534,0.213-1.205-0.221-1.639l-13.501-13.487
				c-1.24-1.239-2.763-2.156-4.438-2.673l-11.354-3.506c-0.768-0.237-1.575,0.239-1.738,1.027l-4.108,19.856
				c-0.164,0.793,0.396,1.554,1.202,1.633l9.216,0.91c0.698,0.069,1.229,0.656,1.229,1.357v0.765c0,0.663-0.476,1.229-1.128,1.344
				l0,0c-1.212,0.212-1.545,1.795-0.521,2.478l13.843,9.23C141.44,203.398,142.333,203.186,142.724,202.498z"/>
			<path style="fill:#FFB743;" d="M120.979,165.724h-0.666c-2.901,0-5.252,2.351-5.252,5.252v11.185
				c0,1.104,0.277,2.191,0.806,3.161l2.275,1.554L120.979,165.724z"/>
			<path style="fill:#545454;" d="M351.129,234.904l-1.284,3.122c-0.908,2.209-2.332,4.168-4.152,5.714l-5.568,4.73l15.359,3.178
				l0,0c-0.211-7.732,5.084-14.55,12.634-16.229c1.632-0.363,2.725-0.516,2.725-0.516H351.129z"/>
			<g>
				<path style="fill:#CEC8AB;" d="M195.438,248.621c-0.669-1.939-1.209-3.316-1.391-3.302l103.857-8.29l3.57,8.757l49.668,0.216
					c4.898,0.021,8.853,4.01,8.831,8.908l-0.14,32.073l-105.192-3.063c0,0-5.189,5.415-10.302,10.908
					c-4.476,0.434-10.209,1.975-17.392,5.164c-3.212,1.428-6.654,2.807-10.239,4.132c1.22-3.127,1.654-6.115,1.777-8.484
					C218.966,286.408,202.407,258.68,195.438,248.621z"/>
				<path style="fill:#AA1B07;" d="M158.104,318.199c12.912-2.378,27.539-2.657,38.732-10.352
					c7.442-5.116,10.722-13.578,10.383-22.414c-0.352-9.191-4.63-15.319-7.881-24.579c-0.253-0.721-2.402-7.89-3.9-12.233
					c6.969,10.059,23.528,37.787,23.048,47.02c-0.123,2.369-0.557,5.358-1.777,8.484c-22.395,8.28-50.602,14.361-66.474,15.619
					C153.056,319.285,155.804,318.623,158.104,318.199z"/>
			</g>
			<path style="fill:#CE2708;" d="M127.976,283.095c0.077,0.165,0.147,0.325,0.218,0.49c0.041,0.1,0.088,0.2,0.135,0.301
				c0.118,0.277,0.236,0.548,0.342,0.819c0.012,0.023,0.023,0.054,0.036,0.077c0.118,0.295,0.224,0.584,0.324,0.861
				c0.035,0.082,0.059,0.165,0.088,0.254c0.071,0.188,0.136,0.377,0.195,0.561c0.035,0.094,0.065,0.183,0.094,0.276
				c0.053,0.172,0.106,0.337,0.153,0.502c0.024,0.082,0.053,0.165,0.077,0.248c0.053,0.183,0.101,0.365,0.147,0.536
				c0.012,0.048,0.03,0.101,0.042,0.142c0.053,0.219,0.107,0.431,0.153,0.632c0.012,0.047,0.023,0.094,0.03,0.147
				c0.035,0.147,0.064,0.289,0.094,0.425c0.012,0.059,0.023,0.117,0.035,0.177c0.024,0.118,0.042,0.229,0.059,0.336
				c0.012,0.059,0.024,0.112,0.03,0.165c0.018,0.106,0.035,0.213,0.047,0.307c0.006,0.042,0.012,0.077,0.018,0.112
				c0.018,0.13,0.035,0.248,0.047,0.355c0,0.023,0.006,0.041,0.006,0.059c0.012,0.083,0.018,0.159,0.023,0.23
				c0,0.029,0.006,0.053,0.006,0.082c0.006,0.047,0.006,0.095,0.012,0.136v0.059c0.006,0.036,0.006,0.065,0.006,0.089v0.023
				c0,0.023,0.006,0.041,0.006,0.041l3.699-2.513c1.162-0.79,2.194-1.675,3.091-2.637c2.696-2.879,4.141-6.424,4.023-10.088
				l-1.18-37.961c-0.03-0.968-0.537-1.84-1.351-2.472c-0.631-0.489-1.439-0.838-2.342-0.962c-0.254-0.041-0.519-0.059-0.785-0.059
				c-2.997,0-5.02-1.269-5.492-3.114C127.445,242.072,124.649,261.269,127.976,283.095z"/>
			<path style="fill:#E8331A;" d="M135.355,281.384c0.077,0.165,0.147,0.325,0.224,0.49c0.042,0.1,0.089,0.2,0.13,0.295
				c0.124,0.283,0.236,0.555,0.342,0.819c0.012,0.03,0.023,0.06,0.035,0.083c0.118,0.295,0.224,0.578,0.331,0.861l0.088,0.248
				c0.071,0.194,0.136,0.383,0.195,0.566c0.029,0.094,0.059,0.183,0.088,0.277c0.059,0.171,0.106,0.336,0.159,0.495
				c0.024,0.089,0.047,0.171,0.071,0.254c0.053,0.183,0.107,0.365,0.153,0.536c0.006,0.024,0.012,0.054,0.018,0.077
				c2.696-2.879,4.141-6.424,4.023-10.088l-1.18-37.961c-0.03-0.968-0.537-1.84-1.351-2.472c-0.631-0.489-1.439-0.838-2.342-0.962
				C134.158,245.824,132.495,262.631,135.355,281.384z"/>
			<path style="fill:#CE2708;" d="M126.079,274.174c-0.115-0.173-0.236-0.34-0.352-0.512c-0.298-0.441-0.599-0.882-0.906-1.316
				c-0.165-0.234-0.337-0.464-0.506-0.695c-0.394-0.54-0.789-1.079-1.205-1.603c-1.006-1.272-2.057-2.488-2.923-3.864
				c-3.319-5.274-4.429-11.767-3.158-17.857c0.692-3.315,2.032-6.527,3.145-9.718c1.205-3.459,2.428-6.911,3.663-10.359
				c1.613-4.499,3.255-8.986,4.91-13.469c0.503-1.361,1.006-2.723,1.512-4.083c0.296-0.795,0.586-1.592,0.883-2.387
				c0.293-0.784,0.593-1.566,0.887-2.35c0.787-2.094,1.573-4.189,2.369-6.279c2.475,1.333,4.95,2.665,7.425,3.998
				c0.208,0.112,0.178,0.091,0.097,0.308c-0.147,0.394-0.295,0.788-0.443,1.182c-0.559,1.489-1.117,2.978-1.675,4.467
				c-2.037,5.431-4.075,10.869-6.106,16.295c-0.597,1.596-1.583,3.433-1.484,5.171c0.02,0.348,0.082,0.622,0.014,0.964
				c-0.046,0.23-0.091,0.46-0.135,0.689c-0.101,0.524-0.198,1.049-0.292,1.574c-0.197,1.107-0.38,2.218-0.549,3.329
				c-0.847,5.559-1.377,11.167-1.645,16.783c-0.456,9.556-0.141,19.156,1.017,28.654c-0.081-0.218-0.169-0.435-0.253-0.651
				c-0.023-0.061-0.046-0.122-0.07-0.182C129.18,279.435,127.76,276.7,126.079,274.174z"/>
			<g>
				<path style="fill:#DDD6BA;" d="M120.915,200.855c2.616-2.034,6.009-3.023,9.394-2.531c1.32,0.192,2.606,0.602,3.796,1.203
					c0.226,0.114,0.324,0.07,0.222,0.339c-0.072,0.189-0.144,0.379-0.216,0.568c-0.144,0.379-0.288,0.758-0.432,1.137
					c-0.3,0.792-0.601,1.586-0.9,2.379c-0.253,0.669-0.5,1.34-0.751,2.01c-0.294,0.784-0.594,1.566-0.887,2.35
					c-0.297,0.795-0.587,1.591-0.883,2.387c-0.506,1.36-1.009,2.722-1.512,4.083c-1.655,4.483-3.297,8.971-4.91,13.469
					c-1.236,3.448-2.458,6.9-3.663,10.359c-1.113,3.19-2.453,6.402-3.145,9.718c-1.271,6.091-0.162,12.583,3.158,17.857
					c0.866,1.376,1.917,2.593,2.923,3.864c0.416,0.524,0.811,1.064,1.205,1.603c0.169,0.231,0.34,0.461,0.506,0.695
					c0.308,0.435,0.608,0.875,0.906,1.316c0.116,0.172,0.237,0.339,0.352,0.512c1.076,1.616,2.031,3.324,2.882,5.08
					c0.06,0.122,0.125,0.241,0.183,0.364c0.034,0.071,0.066,0.143,0.1,0.215c0.085,0.183,0.171,0.364,0.254,0.549
					c0.203,0.445,0.401,0.893,0.586,1.347c0.073,0.177,0.144,0.355,0.215,0.533c0.024,0.06,0.047,0.121,0.07,0.182
					c0.174,0.447,0.285,0.916,0.345,1.393c0.285,2.25,0.617,4.494,0.999,6.729c0.372,2.175,0.692,5.755,0.742,7.96
					c0.015,0.664,0.037,1.327,0.066,1.989c0.155,3.51,0.499,7.052,1.348,10.466c0.684,2.747,1.751,5.969,4.157,7.699
					c1.18,0.849,2.727,1.204,4.143,1.402c1.737,0.244,3.506,0.2,5.248,0.034c1.43-0.137,2.846-0.364,4.276-0.497
					c1.081-0.101,2.16-0.217,3.238-0.344c2.406-0.284,4.804-0.625,7.197-1.004c5.543-0.878,11.055-1.956,16.534-3.169
					c12.079-2.673,24.056-5.967,35.712-10.124c2.77-0.988,5.522-2.03,8.246-3.143c2.965-1.211,5.865-2.575,8.86-3.713
					c5.43-2.064,11.476-3.871,17.352-3.343c2.705,0.243,5.598,1.091,7.384,3.268c1.741,2.148,1.735,5.155,0.17,7.396
					c-0.714,1.017-1.687,1.679-2.666,2.413c-0.98,0.736-1.934,1.511-2.869,2.305c-2.328,1.976-4.557,4.068-6.751,6.191
					c-4.889,4.732-9.613,9.633-14.338,14.528c-1.291,1.338-2.581,2.677-3.871,4.017c-1.193,1.238-2.346,2.496-3.778,3.468
					c-2.403,1.631-5.124,2.259-7.948,2.699c-5.214,0.811-10.525,0.948-15.792,0.806c-5.86-0.158-11.707-0.69-17.522-1.425
					c-10.895-1.376-21.702-3.458-32.398-5.934c-2.091-0.484-4.199-0.94-6.269-1.509c-3.004-0.825-5.696-2.632-7.607-5.092
					c-0.981-1.264-1.752-2.689-2.269-4.204c-0.483-1.416-0.66-2.874-0.849-4.35c-0.358-2.803-0.748-5.602-1.224-8.386
					c-1.069-6.253-2.53-12.52-5.064-18.357c-2.375-5.468-5.859-10.388-10.217-14.454c-3.735-3.485-8.044-6.324-12.637-8.546
					c-0.334-0.161-0.67-0.314-1.006-0.469C96.545,252.821,113.245,216.302,120.915,200.855z"/>
				<path style="fill:#ECF4CE;" d="M91.173,264.436c0.057-0.438-0.07-0.163,0.042-0.591c1.048-3.999,2.637-7.848,4.233-11.657
					c3.809-9.097,8.003-18.035,12.234-26.941c3.208-6.751,6.472-13.476,9.767-20.185c0.833-1.673,2.035-3.094,3.466-4.208
					c-7.67,15.447-24.37,51.966-19.604,68.292c-1.634-0.753-3.3-1.434-4.994-2.038c-0.896-0.319-1.799-0.618-2.708-0.896
					c-0.709-0.217-1.528-0.334-2.203-0.634C91.048,265.421,91.13,264.77,91.173,264.436z"/>
			</g>
			<path style="fill:#4A3231;" d="M135.186,328.646c1.906,2.147,4.448,3.734,7.368,4.454c17.42,4.311,53.487,11.963,74.524,7.427
				c2.808-0.607,5.368-2.053,7.362-4.123c5.699-5.917,10.707-11.126,15.095-15.539C227.001,325.767,198.296,331.89,135.186,328.646z
				"/>
			<path style="fill:#594040;" d="M228.712,326.662c0,0-6.686,11.405-18.091,11.798c-12.585,0.393-51.285-2.186-58.256-5.772
				C196.463,332.561,217.887,332.459,228.712,326.662z"/>
			<g>
				<path style="fill:#CE2708;" d="M297.026,248.471c14.742,3.47,28.664,10.176,40.551,19.566
					c8.939,7.061,17.108,15.702,22.64,25.726c1.704,3.086,3.324,6.456,3.901,9.966c0.176,1.073,0.327,2.292,0.037,3.362
					c-0.067,0.248-0.157,0.476-0.263,0.689C353.344,290.034,331.539,260.823,297.026,248.471z"/>
				<path style="fill:#CE2708;" d="M221.225,300.179c3.6-29.127,26.21-51.565,53.683-54.409c0.667-0.069,1.342-0.085,2.011-0.057
					c6.425,0.276,12.828,1.105,19.104,2.517c0.336,0.076,0.669,0.162,1.004,0.241c34.513,12.353,56.317,41.564,66.866,59.309
					c-0.299,0.598-0.739,1.059-1.273,1.408c-1.716,1.12-4.38,1.107-6.279,0.891c-2.934-0.334-5.691-1.6-8.224-3.06
					c-2.704-1.56-5.903-2.693-8.822-3.804c-19.506-7.42-40.733-7.726-61.094-4.162c-16.038,2.808-31.281,8.196-46.824,12.851
					C225.669,313.611,220.319,307.506,221.225,300.179z"/>
			</g>
			<path style="fill:#E8331A;" d="M228.389,298.045c24.995-17.782,73.335-22.255,109.757-10.959
				c1.437,0.445,12.889,3.086,12.983,3.236c-10.756-17.038-32.233-31.927-51.272-37.914c-20.118-6.327-41.899-3.358-57.152,12.005
				c-4.138,4.168-7.66,8.989-10.498,14.126c-2.168,3.923-6.785,11.18-7.439,15.534C224.23,297.664,226.332,299.507,228.389,298.045z
				"/>
			<path style="fill:#F74F3E;" d="M235.236,284.722c0.17-0.295,0.331-0.574,0.481-0.834c0.552-0.956,1.059-1.835,1.478-2.592
				c2.682-4.853,5.896-9.183,9.554-12.867c8.729-8.792,20.27-13.439,33.373-13.439c5.938,0,12.003,0.961,18.026,2.854
				c10.301,3.24,20.867,9.049,29.88,16.087c1.423,1.11-27.1-13.966-46.25-12.298C248.938,264.494,234.384,286.205,235.236,284.722z"
				/>
			<path style="fill:#4A3231;" d="M192.473,244.925c0.065,5.51,33.1,13.609,53.158,5.828c16.128-6.265,39.129-13.344,54.266-13.827
				c4.507-0.142,6.802-5.434,3.887-8.879c-9.842-11.639-18.589-11.426-30.336-2.457c-8.302,6.339-17.597,8.767-27.343,11.1
				c-10.031,2.4-17.839,4.991-28.403,2.558C207.238,236.836,194.316,227.374,192.473,244.925z"/>
			<path style="fill:#594040;" d="M195.712,236.088c5.197,5.238,30.841,11.02,47.075,4.047
				c14.571-6.265,35.348-13.344,49.021-13.827c2.785-0.101,4.638-2.608,4.685-5.28c-8.111-6.07-17.161-7.238-28.104-2.401
				c-14.424,6.377-27.874,15.019-44.391,12.542C208.012,228.773,199.735,231.056,195.712,236.088z"/>
			<g>
				<path style="fill:#4A3231;" d="M145.017,323.044c10.489,0,20.933-1.963,31.041-4.637c3.947-1.045,8.302-1.759,12.17-3.418
					c3.265-1.399,7.842-3.468,9.992-8.171c-2.27,2.345-21.716,9.028-39.042,11.128c-4.522,0.549-9.057,1.099-13.614,1.129
					c-4.317,0.029-7.638,0.135-10.296-3.618C133.717,321.391,140.632,323.044,145.017,323.044z"/>
			</g>
			<g>
				<path style="fill:#545454;" d="M310.482,231.729c0,2.33,1.213,4.218,2.706,4.218h61.049c0.746,0,1.421-0.472,1.913-1.233
					c0.489-0.767,0.792-1.822,0.792-2.984c0-2.324-1.212-4.213-2.705-4.213h-61.049c-0.747,0-1.425,0.473-1.914,1.233
					C310.785,229.516,310.482,230.566,310.482,231.729z"/>
				<path style="fill:#737171;" d="M310.482,231.729h66.46c0-2.324-1.212-4.213-2.705-4.213h-61.049
					c-0.747,0-1.425,0.473-1.914,1.233C310.785,229.516,310.482,230.566,310.482,231.729z"/>
			</g>
		</g>
		<g>
			<g>
				<path style="fill:#1C0D04;" d="M140.247,142.776c0.008,5.303,1.436,9.599,3.189,9.596c1.754-0.003,3.169-4.303,3.161-9.605
					c-0.008-5.302-1.436-9.599-3.19-9.596C141.654,133.173,140.238,137.474,140.247,142.776z"/>
			</g>
			<g>
				<path style="fill:#CE2708;" d="M138.542,142.778c0.006,4.348,2,8.023,3.564,9.197c0.342,0.259,0.666,0.395,0.944,0.395
					c1.54,0,2.778-4.3,2.773-9.604c-0.012-5.304-1.263-9.598-2.802-9.598c-0.277,0-0.602,0.142-0.944,0.407
					c-1.498,1.132-3.38,4.566-3.528,8.684C138.542,142.43,138.542,142.607,138.542,142.778z"/>
			</g>
			<g>
				<path style="fill:#E8331A;" d="M138.542,142.778c0.006,4.348,2,8.023,3.564,9.197c0.767-1.18,1.327-4.855,1.315-9.203
					c-0.006-4.348-0.572-8.017-1.345-9.197c-1.498,1.132-3.38,4.566-3.528,8.684C138.542,142.43,138.542,142.607,138.542,142.778z"
					/>
			</g>
			<g>
				<path style="fill:#474747;" d="M138.767,143.419c0.167,1.084,0.966,1.86,1.784,1.733c0.817-0.127,1.344-1.108,1.176-2.192
					c-0.168-1.084-0.967-1.86-1.784-1.733C139.125,141.354,138.599,142.335,138.767,143.419z"/>
				<path style="fill:#C3C3C3;" d="M138.6,181.911c0.04,0,0.08-0.002,0.121-0.008c0.484-0.066,0.823-0.512,0.757-0.997
					l-4.218-30.933l5.66-6.622c0.318-0.372,0.274-0.93-0.098-1.248c-0.372-0.317-0.93-0.273-1.248,0.098l-5.917,6.924
					c-0.164,0.192-0.238,0.444-0.204,0.695l4.271,31.326C137.784,181.59,138.164,181.911,138.6,181.911z"/>
			</g>
		</g>
		<g>
			<path style="fill:#C3C3C3;" d="M138.767,179.858L138.767,179.858c1.403-1.195,3.539-1.022,4.746,0.383l9.113,11.44l-0.973-0.098
				l-0.365,3.637h-2.847c0.318-0.155,0.584-0.381,0.721-0.744c0.056-0.149-0.163-0.27-0.266-0.155
				c-0.19,0.214-0.436,0.295-0.698,0.31v0c0.035-0.359-0.376-0.54-0.663-0.419c-0.002-0.225-0.007-0.448-0.014-0.663
				c-0.017-0.477-0.415-0.717-0.855-0.651c-0.281,0.043-0.571,0.209-0.736,0.452l-7.521-8.763
				C137.202,183.181,137.363,181.053,138.767,179.858z"/>
			<path style="fill:#4A3231;" d="M139.772,189.741c1.308,2.26,4.712,2.47,7.175,0.742c2.463-1.728,3.245-4.862,1.745-6.999
				c-1.5-2.138-4.816-2.609-7.175-0.742C139.103,184.651,138.267,187.142,139.772,189.741z"/>
			<path style="fill:#4A3231;" d="M149.292,183.86l-1.326-1.16c-0.152-0.115-1.123-0.603-1.313-0.584l-2.65,0.274L149.292,183.86z"
				/>
			<path style="fill:#C3C3C3;" d="M140.196,189.946c1.129,1.903,4.16,2.189,6.77,0.641c2.609-1.549,3.809-4.347,2.68-6.249
				c-1.129-1.903-4.16-2.19-6.77-0.641C140.266,185.246,139.066,188.044,140.196,189.946z"/>
			<path style="fill:#474747;" d="M140.992,189.67c0.917,1.721,3.506,2.132,5.782,0.919c2.275-1.214,3.376-3.592,2.459-5.313
				c-0.917-1.721-3.506-2.132-5.782-0.918C141.176,185.572,140.075,187.95,140.992,189.67z"/>
			<path style="fill:#4A3231;" d="M143.917,185.202c2.289-1.342,4.199-0.696,5.233,0.309c3.142,3.868,7.597,7.3,10.578,12.063
				c0.089,0.123-0.037,0.43-0.081,0.57c-0.23,0.73-0.352,1.054-0.619,1.77c-0.627-0.133-1.254-0.251-1.881-0.355
				c-0.06,0.354-0.124,0.709-0.192,1.064c-0.865-0.17-2.193,0.291-2.212,0.442c-3.499-3.941-9.105-6.857-13.266-10.951
				C140.713,188.824,142.112,186.394,143.917,185.202z"/>
			<path style="fill:#C3C3C3;" d="M155.308,197.643c-1.138,1.331-1.246,3.105-0.243,3.963c1.004,0.858,2.74,0.475,3.878-0.855
				c1.137-1.331,1.246-3.105,0.243-3.963C158.182,195.929,156.446,196.311,155.308,197.643z"/>
		</g>
		<path style="fill:#B7B7B7;" d="M378.721,294.593c0-4.411,3.565-7.987,7.972-8.009c-0.048-0.356-0.081-0.716-0.081-1.084
			c0-4.443,3.603-8.047,8.046-8.047c3.564,0,6.582,2.32,7.64,5.529c1.247-0.793,2.723-1.259,4.311-1.259
			c4.443,0,8.046,3.603,8.046,8.046c0,4.444-3.603,8.047-8.046,8.047c-0.006,0-0.011-0.001-0.016-0.001
			c0.004,0.104,0.016,0.205,0.016,0.31c0,4.444-3.603,8.047-8.047,8.047c-0.595,0-1.172-0.069-1.729-0.191
			c-1.458,2.057-3.852,3.403-6.564,3.403c-4.444,0-8.047-3.602-8.047-8.047c0-0.04,0.006-0.08,0.006-0.12
			C380.11,299.774,378.721,297.347,378.721,294.593z"/>
	</g>
</g>
<g id="_x32__1_">
	<g>
		<path style="fill:#EFCEAC;" d="M154.266,192.85l-0.492,0.868c2.266-0.646,4.667-0.945,6.673-1.109
			c0.396-0.029,2.073-0.222,3.867-0.367c2.372-0.202,4.966-0.309,5.13,0.184l-0.28-1.09l-1.012-4.012
			c-1.186-0.086-2.373-0.145-3.559-0.173c-2.7-0.097-5.4-0.077-8.09,0.039c-2.006,0.077-4.05,0.202-6.066,0.482l3.616,3.616
			c0.077,0.077,0.154,0.174,0.203,0.27C154.487,191.953,154.497,192.436,154.266,192.85z"/>
		<path style="fill:#E0B999;" d="M153.774,193.718c2.266-0.646,4.667-0.945,6.673-1.109c0.396-0.029,2.073-0.222,3.867-0.367
			c2.372-0.202,4.966-0.309,5.13,0.184l-0.28-1.09c-1.601-0.087-3.191-0.135-4.792-0.154c-1.948-0.019-3.896,0.01-5.834,0.087
			c-1.398,0.058-2.835,0.135-4.282,0.289c0.231,0.395,0.241,0.878,0.01,1.292L153.774,193.718z"/>
		<path style="fill:#C9C3B9;" d="M227.011,165.239l-14.603,4.121l1.075,27.085l-48.808-10.922l-0.409,7.557
			c0,0,29.317,14.599,56.253,21.573C222.105,215.064,231.621,199.841,227.011,165.239z"/>
	</g>
	<path style="fill:#C9C3B9;" d="M157.384,274.3c2.632-7.738,3.248-16.379,6.507-23.87c1.969-4.526-0.475-3.648,3.931-3.768
		c0.996-0.027,9.087,0.711,8.926,1.542c-3.342,17.279-9.95,33.992-17.253,49.653c-1.083,2.322-4.333,10.699-5.166,12.621
		c-0.485,1.121-7.44-0.885-7.229-2.306C147.907,302.764,155.089,281.05,157.384,274.3z"/>
	<path style="fill:#FFFFFF;" d="M183.751,135.474c-0.117-0.983,0.421-2.13,0.897-3.01c-0.295,0.544-2.18,1.339-2.783,1.475
		c-3.079,0.69-4.617-2.604-6.104-4.564c2.77-0.602,5.264-1.424,7.91-2.324c1.904-0.647,6.674-0.761,6.425,2.295
		c-0.12,1.465-1.938,2.923-3.11,3.578c-0.575,0.321-1.448,0.406-1.936,0.804C184.995,133.774,183.766,135.587,183.751,135.474z"/>
	<path style="fill:#EFCEAC;" d="M167.101,123.978c0.386,0.434,0.839,0.839,1.311,1.176c0.145,0.106,0.28,0.203,0.434,0.29
		c0.039,0.039,0.087,0.058,0.126,0.087c1.668,1.022,4.349,1.263,5.747,2.392c0.02,0.009,0.038,0.019,0.058,0.038
		c1.456,1.225,0.819,4.781,3.105,5.157c2.112,0.347,7.23-2.909,9.589-4.925c0.549,2.855-6.362,4.714-6.56,8.909
		c3.202,1.543,2.757,5.523,9.112,6.375c1.245,0.167,2.671,0.184,4.118,0.029c1.659-0.173,3.346-0.492,4.773-0.675
		c6.683-0.849,15.655-1.512,18.438-7.608c5.343-11.706,19.633-20.531,14.3-33.481c-7.859-19.094-32.16-25.545-48.197-12.816
		c-6.798,5.41-6.094,9.064-6.904,16.509c-0.328,3.009-1.476,6.673-3.732,8.707c-0.675,0.608-1.572,1.022-2.498,1.418
		c-0.54,0.231-1.089,0.453-1.61,0.704c-1.003,0.482-1.919,1.061-2.469,1.958C164.998,120.274,165.693,122.396,167.101,123.978z"/>
	<path style="fill:#470A04;" d="M226.225,121.178c-0.997,4.541,1.031,11.769,7.262,8.513c-1.722,2.355-5.654,3.831-8.316,2.411
		c1.004,5.046,7.649,4.712,11.499,5.557c0.076,2.607-5.287,3.034-7.082,2.893c-3.492-0.275-6.585-3.374-8.798-5.828
		c-3.395-3.765-3.106-9.042-2.169-13.661c0.251-1.24,3.15-10.975,1.5-11.616c-1.736-0.673-7.843,6.728-7.843,6.728
		s-7.05-7.508-7.072-7.531c-0.306-0.326-0.412-1.84-0.606-2.31c-0.908-2.203-2.706-3.952-4.655-5.253
		c-4.809-3.21-12.887-6.706-18.687-4.688c-3.639,1.266-7.89,8.611-12.089,5.564c1.233-0.193,3.952-1.464,4.596-2.568
		c-3.45,2.222-8.45-0.099-11.536-2.205c-1.19-0.812-2.979-2.725-3.104-4.257c-0.15-1.855,2.069-2.012,2.086-2.275
		c-0.295,4.562,5.022,6.48,8.797,5.857c4.589-0.758,5.462-6.888,9.752-8.724c5.159-2.208,11.119-2.128,16.626-2.346
		c7.831-0.31,16.609,0.482,23.083,5.351C228.878,97.863,228.511,110.783,226.225,121.178z"/>
	<path style="fill:#E2DED7;" d="M164.181,283.94c2.038-7.086,2.006-14.919,4.688-21.803c1.62-4.159,1.813-4.308,6.183-4.564
		c0.989-0.058,9.086,0.337,8.988,1.093c-2.033,15.737-7.354,31.072-13.446,45.479c-0.903,2.137-2.885,9.832-4.735,10.938
		c-2.764,1.651-4.677-1.6-6.855-2.279c0.703-4.513,1.484-8.888,1.78-13.482C161.108,294.276,162.788,288.782,164.181,283.94z"/>
	<path style="fill:#2D6572;" d="M180.774,220.314c-7.714-0.082-14.412,16.698-17.081,25.718
		c-1.718,5.804-9.195,36.889-10.166,36.482c1.854,1.778,6.788,5.122,9.415,5.766c8.001,1.958,9.266-23.538,16.389-27.947
		c5.808-3.595,3.566-17.062,3.854-23.236C183.354,233.484,188.037,220.391,180.774,220.314z"/>
	<path style="fill:#EFCEAC;" d="M217.356,135.22c2.208,3.838,9.419,7.743,7.993,12.381c-0.921,2.996-5.333,5.909-7.679,7.738
		c-3.283,2.561-4.704,2.624-7.974,0.026c-4.389-3.488-6.102-8.789-7.035-14.08c-0.493-2.799-2.223-7.177,0.796-9.063
		C205.764,130.782,215.924,132.729,217.356,135.22z"/>
	<path style="fill:#357787;" d="M226.059,207.366c-3.133,3.315-9.118,3.208-13.943,3.786c-9.55,1.145-19.081,2.733-28.282,5.607
		c-13.548,4.232-12.694,12.684-15.063,24.07c-3.607,17.334-1.884,31.942-7.365,48.874c-0.364,1.124,14.484,8.009,15.149,3.429
		c1.167-8.047,12.414-46.648,14.594-52.432c6.108-16.199,26.809-4.183,42.905-6.967c18.855-3.262,30.944-8.065,34.666-23.513
		C254.802,212.521,236.219,209.473,226.059,207.366z"/>
	<path style="fill:#357787;" d="M198.914,142.83c0,0,15.91-7.02,18.88-19.135c2.97-12.115,4.024,1.749,4.024,1.749
		s-5.09,15.132-19.991,19.722C199.701,144.509,198.914,142.83,198.914,142.83z"/>
	<path style="fill:#CE2708;" d="M271.974,211.692c3.405-2.445,11.27-4.724,6.005-9.616c-2.724-2.531-5.126-4.508-7.363-7.568
		c-5.04-6.895-6.423-15.867-10.671-23.246c-4.524-7.86-8.988-12.606-18.274-20.324c-2.041-1.697-17.599-9.564-17.768-8.716
		c-1.858,9.321-9.774,9.538-17.018,10.801c-0.351,8.387,4.942,21.658,9.182,28.892c3.884,6.626,14.371,17.376,11.103,23.562
		c-0.31,0.586-0.686,1.095-1.11,1.545c9.296,1.928,18.499,4.243,27.919,5.528C260,213.371,266.982,215.277,271.974,211.692z"/>
	<path style="fill:#AA1B07;" d="M140.568,319.072c-3.747-1.093-5.078-2.837-5.667-4.78c3.95-1.108,10.434-1.523,12.117-6.316
		c1.095,0.767,1.716,1.681,2.977,2.153c1.684,0.632,2.742,0.357,4.54,0.595c-0.308,0.434,0.37,5.497-0.915,6.558
		c-1.376,1.136-4.578,0.489-6.169,1.281c-1.237,0.616-3.699,0.002-6.014,0.791L140.568,319.072z"/>
	<path style="fill:#470A04;" d="M194.212,106.037c0,0-6.398-4.861-12.303-0.397C176.003,110.104,183.481,96.876,194.212,106.037z"/>
	<path style="fill:#FFFFFF;" d="M190.739,112.981c0,0-5.791-6.096-10.91-2.922C177.239,114.881,182.382,119.439,190.739,112.981z"/>
	<path style="fill:#774B42;" d="M179.83,112.051c0,1.438,0.942,2.604,2.105,2.604c1.163,0,2.105-1.166,2.105-2.604
		s-0.943-2.604-2.105-2.604C180.772,109.447,179.83,110.613,179.83,112.051z"/>
	<path style="fill:#470A04;" d="M180.063,112.051c0,0.639,0.419,1.158,0.936,1.158c0.517,0,0.936-0.519,0.936-1.158
		c0-0.639-0.419-1.158-0.936-1.158C180.482,110.894,180.063,111.412,180.063,112.051z"/>
	
		<radialGradient id="SVGID_1_" cx="347.5413" cy="121.282" r="11.8352" gradientTransform="matrix(-1 0 0 1 546.8477 0)" gradientUnits="userSpaceOnUse">
		<stop  offset="0.0036" style="stop-color:#E89587"/>
		<stop  offset="0.9964" style="stop-color:#EFCEAC"/>
	</radialGradient>
	<path style="fill:url(#SVGID_1_);" d="M187.471,121.282c0,6.536,5.299,11.835,11.835,11.835c6.537,0,11.835-5.299,11.835-11.835
		c0-6.537-5.299-11.835-11.835-11.835C192.77,109.447,187.471,114.746,187.471,121.282z"/>
	<path style="fill:#D8A88F;" d="M190.739,112.981c0,0-8.397-8.324-10.91-2.922C179.557,110.643,183.105,108.108,190.739,112.981z"/>
	<path style="fill:#D8A88F;" d="M168.412,125.154c0.183,0.135,0.367,0.261,0.56,0.376c1.668,1.022,4.349,1.263,5.747,2.392
		c0.02-0.116,0.02-0.231,0.02-0.357c-0.02-0.733-0.64-0.865-0.891-1.279c-0.771-1.244-2.006-2.103-3.52-1.842
		C169.836,124.521,169.116,124.45,168.412,125.154z"/>
	
		<linearGradient id="SVGID_00000034784674435966991940000015572743211259069855_" gradientUnits="userSpaceOnUse" x1="386.0228" y1="116.2077" x2="377.8257" y2="120.2259" gradientTransform="matrix(-1 0 0 1 546.8477 0)">
		<stop  offset="0.0036" style="stop-color:#E88076"/>
		<stop  offset="0.9964" style="stop-color:#EFCEAC"/>
	</linearGradient>
	<path style="fill:url(#SVGID_00000034784674435966991940000015572743211259069855_);" d="M167.101,123.978
		c0.386,0.434,0.839,0.839,1.311,1.176c0.145,0.106,0.28,0.203,0.434,0.29c-0.878-3.78,0.154-7.271,1.475-9.884
		c-0.54,0.231-1.089,0.453-1.61,0.704c-1.003,0.482-1.919,1.061-2.469,1.958C164.998,120.274,165.693,122.396,167.101,123.978z"/>
	<g>
		<path style="fill:#CE2708;" d="M194.477,70.861c-11.742,4.32-22.057,14.501-30.783,23.101c0.175-0.175,1.652,4.511,15.991,1.586
			c7.702-1.571,16.065,0.874,22.61,5.462c5.682,3.983,13.213,9.73,13.571,17.327c0.07,1.482-0.843,3.44-0.384,5.061
			c1.958,6.916,9.549,5.616,12.126,0.73c1.59-3.014,2.187-5.942,4.198-8.964c1.985-2.983,3.947-5.755,5.02-9.232
			c4.481-14.521-6.347-29.648-19.928-35.002C208.942,67.795,201.457,68.293,194.477,70.861z"/>
		<path style="fill:#E8331A;" d="M225.26,83.359c3.803,3.346,5.642,7.755,8.511,12.315c-1.421-12.104-8.467-18.923-17.399-22.254
			c-7.845-2.926-16.986-2.58-24.506,1.148c-6.771,3.356-19.648,11.885-27.081,19.418c3.938-3.013,7.518-6.186,11.298-8.584
			c7.936-5.034,17.034-9.066,26.532-9.582c7.369-0.4,13.843,1.859,20.048,5.631C223.626,82.038,224.484,82.677,225.26,83.359z"/>
		<path style="fill:#E8331A;" d="M218.62,121.063c0,0-1.23-28.282-39.547-27.799C183.186,90.371,219.926,90.873,218.62,121.063z"/>
	</g>
	<path style="fill:#CE2708;" d="M167.825,311.949c0,0-5.68,2.26-8.821-0.007c-9.748,5.768-18.283-1.461-21.477,2.34
		c-5.472,6.513,22.4,8.851,31.062,3.927C171.08,315.36,167.825,311.949,167.825,311.949z"/>
	<g>
		<path style="fill:#EFCEAC;" d="M150.225,203.573c0.202,0.299,0.501,0.607,0.858,0.897c1.148,0.916,2.893,1.61,3.771,0.926
			c1.283-0.994,1.08-4.764,2.604-6.229c3.172-3.067,9.2-3.501,13.423-3.501c0.945,0,8.968-0.338,9.181,0.54l-0.193-1.109
			l-0.713-4.079c-3.925-0.579-7.898-0.926-11.861-1.07c-2.97-0.116-6.008-0.154-8.968,0.251c-1.89,0.261-6.731,0.521-7.878,1.967
			C148.933,194.065,148.865,201.577,150.225,203.573z"/>
		<path style="fill:#E0B999;" d="M151.083,204.47c1.148,0.916,2.893,1.61,3.771,0.926c1.283-0.994,1.08-4.764,2.604-6.229
			c3.172-3.067,9.2-3.501,13.423-3.501c0.945,0,8.968-0.338,9.181,0.54l-0.193-1.109c-3.587-0.482-7.213-0.781-10.829-0.926
			c-3.761-0.15-7.808-0.153-11.489,0.965c-1.877,0.57-3.733,1.453-5.078,2.92C150.677,200.016,150.846,201.951,151.083,204.47z"/>
		<path style="fill:#E2DED7;" d="M239.536,175.443l-18.412,1.345l3.506,26.959l-48.869-14.805l-1.028,7.498
			c0,0,28.704,16.905,55.596,26.019C231.913,222.994,246.102,215.142,239.536,175.443z"/>
	</g>
	<path style="fill:#470A04;" d="M182.302,109.911c0,0-2.19,0.168-3.229-1.014C179.646,110.428,179.609,110.26,182.302,109.911z"/>
	<path style="fill:#E8331A;" d="M220.361,181.806c0,0-7.107-15.179-4.556-22.708c2.551-7.529,17.55-13.464,25.796,13.161
		C243.074,176.457,220.361,181.806,220.361,181.806z"/>
</g>
<g id="_x33_">
	<g>
		<path style="fill:#9AA4A5;" d="M307.852,251.648c0.127-0.242,0.189-0.517,0.147-0.801c-0.042-0.264-3.56-27.203,0.79-61.105
			c2.938-22.938,10.026-52.585,26.635-78.841c5.034-7.951,10.932-15.587,17.861-22.632c1.338-1.369,2.718-2.717,4.14-4.034
			c0.526-0.495,0.558-1.327,0.063-1.864c-0.463-0.495-1.222-0.548-1.748-0.137c-0.042,0.01-0.073,0.042-0.105,0.074
			c-1.453,1.348-2.864,2.717-4.223,4.118c-7.151,7.267-13.229,15.155-18.389,23.349c-16.735,26.582-23.875,56.481-26.846,79.63
			c-4.097,31.964-1.264,57.872-0.842,61.389c0.357,0.116,0.727,0.242,1.084,0.369L307.852,251.648z"/>
	</g>
	<g>
		<path style="fill:#BBC3C4;" d="M355.845,84.236c-1.2,1.116-2.38,2.253-3.528,3.412c-7.088,7.12-13.122,14.85-18.251,22.917
			c-16.777,26.34-23.907,56.145-26.856,79.178c-4.35,33.902-0.832,60.841-0.79,61.105c0.011,0.105,0.011,0.211,0,0.316
			c-0.357-0.127-0.727-0.253-1.084-0.369c-0.422-3.518-3.255-29.425,0.842-61.389c2.971-23.149,10.11-53.048,26.846-79.631
			c5.16-8.193,11.237-16.082,18.389-23.349c1.358-1.401,2.77-2.77,4.223-4.118c0.032-0.031,0.064-0.063,0.105-0.074
			c0.063,0.032,0.116,0.085,0.169,0.137C356.403,82.909,356.371,83.741,355.845,84.236z"/>
	</g>
	<path style="fill:#CE2708;" d="M355.207,90.642c-0.649-0.717-1.25-1.484-1.787-2.31c-1.141-0.504-1.453-0.95-2.049-1.971
		c-10.018,8.082-18.488,23.222-18.488,23.222s0.895,1.426,3.007,1.315c0.891,0.214,2.173,0.302,3.291,0.526
		c11.646,2.335,36.347,7.702,54.831,1.233C394.012,112.659,365.241,101.716,355.207,90.642z"/>
</g>
<g id="_x34_">
	<path style="fill:#FC371C;" d="M394.122,191.036c-0.3-2.687-0.748-5.374-1.393-8.061c-1.517-5.833-9.157-11.568-15.754-12.372
		c-16.758-1.829-33.516-2.123-50.273-0.931l21.363,21.363H394.122z"/>
	<path style="fill:#E8331A;" d="M326.702,169.673c-3.532,0.251-7.064,0.545-10.598,0.931c-6.597,0.804-14.237,6.539-15.753,12.372
		c-0.646,2.687-1.094,5.374-1.394,8.061h49.107L326.702,169.673z"/>
	<path style="fill:#CE2708;" d="M298.76,203.857c0.276,3.305,0.798,6.61,1.592,9.916c1.517,5.834,9.156,11.568,15.753,12.372
		c20.291,2.215,40.581,2.215,60.871,0c1.583-0.193,3.225-0.675,4.829-1.369l-20.918-20.918H298.76z"/>
	<path style="fill:#CE2708;" d="M353.223,196.193H298.57c-0.029,0.836-0.04,1.672-0.036,2.508h57.195L353.223,196.193z"/>
	<path style="fill:#F12E09;" d="M381.805,224.775c5.081-2.198,9.772-6.568,10.925-11.002c0.794-3.305,1.315-6.61,1.592-9.916
		h-33.435L381.805,224.775z"/>
	<path style="fill:#F12E09;" d="M355.729,198.701h38.817c0.003-0.836-0.008-1.672-0.036-2.508h-41.288L355.729,198.701z"/>
	<path style="fill:#FFAD40;" d="M398.794,194.087v-0.944c0-1.158-0.948-2.106-2.106-2.106h-2.565
		c0.173,1.544,0.309,3.087,0.375,4.63c0.008,0.175,0.007,0.351,0.014,0.526h2.177C397.846,196.193,398.794,195.245,398.794,194.087z
		"/>
	<path style="fill:#FFAD40;" d="M298.958,191.036h-1.971c-1.159,0-2.106,0.948-2.106,2.106v0.944c0,1.158,0.947,2.106,2.106,2.106
		h1.583c0.006-0.175,0.006-0.351,0.013-0.526C298.648,194.123,298.785,192.58,298.958,191.036z"/>
	<path style="fill:#FFAD40;" d="M352.695,195.667h41.802c-0.066-1.543-0.202-3.087-0.375-4.63h-46.057L352.695,195.667z"/>
	<path style="fill:#FFAD40;" d="M352.695,195.667l-4.63-4.63h-49.107c-0.173,1.544-0.31,3.087-0.375,4.63H352.695z"/>
	<path style="fill:#FFAD40;" d="M352.695,195.667h-54.112c-0.007,0.175-0.007,0.351-0.013,0.526h54.652L352.695,195.667z"/>
	<path style="fill:#FFAD40;" d="M352.695,195.667l0.527,0.526h41.288c-0.007-0.175-0.006-0.351-0.014-0.526H352.695z"/>
	<path style="fill:#FFAD40;" d="M296.987,198.701c-1.159,0-2.106,0.948-2.106,2.106v0.944c0,1.158,0.947,2.106,2.106,2.106h1.772
		c-0.144-1.719-0.219-3.438-0.226-5.157H296.987z"/>
	<path style="fill:#FFAD40;" d="M396.688,203.857c1.158,0,2.106-0.948,2.106-2.106v-0.944c0-1.158-0.948-2.106-2.106-2.106h-2.141
		c-0.007,1.719-0.082,3.438-0.226,5.157H396.688z"/>
	<path style="fill:#FFAD40;" d="M360.887,203.857h33.435c0.143-1.719,0.219-3.438,0.226-5.157h-38.817L360.887,203.857z"/>
	<path style="fill:#FFAD40;" d="M355.729,198.701h-57.195c0.007,1.719,0.082,3.438,0.226,5.157h62.127L355.729,198.701z"/>
</g>
</svg>
